<svg id="visual" viewBox="0 0 900 600" width="900" height="600" xmlns="http://www.w3.org/2000/svg" xmlns:xlink="http://www.w3.org/1999/xlink" version="1.1"><rect x="0" y="0" width="900" height="600" fill="#000c38"></rect><defs><linearGradient id="grad1_0" x1="33.3%" y1="100%" x2="100%" y2="0%"><stop offset="20%" stop-color="#000c38" stop-opacity="1"></stop><stop offset="80%" stop-color="#000c38" stop-opacity="1"></stop></linearGradient></defs><defs><linearGradient id="grad2_0" x1="0%" y1="100%" x2="66.7%" y2="0%"><stop offset="20%" stop-color="#000c38" stop-opacity="1"></stop><stop offset="80%" stop-color="#000c38" stop-opacity="1"></stop></linearGradient></defs><g transform="translate(900, 600)"><path d="M-432.7 0C-411 -41.5 -389.3 -82.9 -371.9 -120.8C-354.4 -158.7 -341.1 -193 -325.2 -236.3C-309.4 -279.6 -291 -331.8 -254.3 -350C-217.6 -368.2 -162.6 -352.4 -117.1 -360.5C-71.7 -368.5 -35.8 -400.6 0 -432.7L0 0Z" fill="#000000"></path></g><g transform="translate(0, 0)"><path d="M432.7 0C427.1 45.4 421.6 90.9 404.2 131.3C386.8 171.8 357.7 207.2 328.5 238.6C299.3 270.1 270 297.6 238.6 328.5C207.3 359.3 173.8 393.6 133.7 411.5C93.6 429.4 46.8 431 0 432.7L0 0Z" fill="#000000"></path></g></svg>