<svg id="visual" viewBox="0 0 4000 3000" width="4000" height="3000" xmlns="http://www.w3.org/2000/svg" xmlns:xlink="http://www.w3.org/1999/xlink" version="1.1"><rect x="0" y="0" width="4000" height="3000" fill="#000000"></rect><path d="M3051 0L2996.7 125C2942.3 250 2833.7 500 2800 750C2766.3 1000 2807.7 1250 2823.5 1500C2839.3 1750 2829.7 2000 2853.8 2250C2878 2500 2936 2750 2965 2875L2994 3000L0 3000L0 2875C0 2750 0 2500 0 2250C0 2000 0 1750 0 1500C0 1250 0 1000 0 750C0 500 0 250 0 125L0 0Z" fill="#001330"></path><path d="M1854 0L1928.3 125C2002.7 250 2151.3 500 2244.3 750C2337.3 1000 2374.7 1250 2298.7 1500C2222.7 1750 2033.3 2000 2014.8 2250C1996.3 2500 2148.7 2750 2224.8 2875L2301 3000L0 3000L0 2875C0 2750 0 2500 0 2250C0 2000 0 1750 0 1500C0 1250 0 1000 0 750C0 500 0 250 0 125L0 0Z" fill="#001547"></path><path d="M1549 0L1554 125C1559 250 1569 500 1504.7 750C1440.3 1000 1301.7 1250 1301.5 1500C1301.3 1750 1439.7 2000 1453.3 2250C1467 2500 1356 2750 1300.5 2875L1245 3000L0 3000L0 2875C0 2750 0 2500 0 2250C0 2000 0 1750 0 1500C0 1250 0 1000 0 750C0 500 0 250 0 125L0 0Z" fill="#00105c"></path><path d="M569 0L603.7 125C638.3 250 707.7 500 782.5 750C857.3 1000 937.7 1250 976 1500C1014.3 1750 1010.7 2000 942.5 2250C874.3 2500 741.7 2750 675.3 2875L609 3000L0 3000L0 2875C0 2750 0 2500 0 2250C0 2000 0 1750 0 1500C0 1250 0 1000 0 750C0 500 0 250 0 125L0 0Z" fill="#0d006e"></path></svg>