<svg id="visual" viewBox="0 0 1920 1080" width="1920" height="1080" xmlns="http://www.w3.org/2000/svg" xmlns:xlink="http://www.w3.org/1999/xlink" version="1.1"><g><g transform="translate(703 445)"><path d="M0 -242.3L209.9 -121.2L209.9 121.2L0 242.3L-209.9 121.2L-209.9 -121.2Z" fill="none" stroke="#1198c4" stroke-width="4"></path></g><g transform="translate(1762 154)"><path d="M0 -92L79.7 -46L79.7 46L0 92L-79.7 46L-79.7 -46Z" fill="none" stroke="#1198c4" stroke-width="4"></path></g><g transform="translate(869 1016)"><path d="M0 -165L142.9 -82.5L142.9 82.5L0 165L-142.9 82.5L-142.9 -82.5Z" fill="none" stroke="#1198c4" stroke-width="4"></path></g><g transform="translate(1790 947)"><path d="M0 -200L173.2 -100L173.2 100L0 200L-173.2 100L-173.2 -100Z" stroke="#1198c4" fill="none" stroke-width="4"></path></g><g transform="translate(141 458)"><path d="M0 -186L161.1 -93L161.1 93L0 186L-161.1 93L-161.1 -93Z" stroke="#1198c4" fill="none" stroke-width="4"></path></g><g transform="translate(217 1040)"><path d="M0 -101L87.5 -50.5L87.5 50.5L0 101L-87.5 50.5L-87.5 -50.5Z" stroke="#1198c4" fill="none" stroke-width="4"></path></g><g transform="translate(1396 603)"><path d="M0 -133L115.2 -66.5L115.2 66.5L0 133L-115.2 66.5L-115.2 -66.5Z" stroke="#1198c4" fill="none" stroke-width="4"></path></g><g transform="translate(1092 69)"><path d="M0 -221L191.4 -110.5L191.4 110.5L0 221L-191.4 110.5L-191.4 -110.5Z" stroke="#1198c4" fill="none" stroke-width="4"></path></g></g></svg>