<svg id="visual" viewBox="0 0 900 600" width="900" height="600" xmlns="http://www.w3.org/2000/svg" xmlns:xlink="http://www.w3.org/1999/xlink" version="1.1"><rect x="0" y="0" width="900" height="600" fill="#000000"></rect><path d="M674 0L682.2 25C690.3 50 706.7 100 715 150C723.3 200 723.7 250 714 300C704.3 350 684.7 400 681.3 450C678 500 691 550 697.5 575L704 600L0 600L0 575C0 550 0 500 0 450C0 400 0 350 0 300C0 250 0 200 0 150C0 100 0 50 0 25L0 0Z" fill="#0024eb"></path><path d="M598 0L597 25C596 50 594 100 586.2 150C578.3 200 564.7 250 560 300C555.3 350 559.7 400 563.5 450C567.3 500 570.7 550 572.3 575L574 600L0 600L0 575C0 550 0 500 0 450C0 400 0 350 0 300C0 250 0 200 0 150C0 100 0 50 0 25L0 0Z" fill="#041dd0"></path><path d="M456 0L459.5 25C463 50 470 100 470.3 150C470.7 200 464.3 250 462.3 300C460.3 350 462.7 400 459.3 450C456 500 447 550 442.5 575L438 600L0 600L0 575C0 550 0 500 0 450C0 400 0 350 0 300C0 250 0 200 0 150C0 100 0 50 0 25L0 0Z" fill="#0515b7"></path><path d="M350 0L347.5 25C345 50 340 100 335 150C330 200 325 250 329.7 300C334.3 350 348.7 400 349.2 450C349.7 500 336.3 550 329.7 575L323 600L0 600L0 575C0 550 0 500 0 450C0 400 0 350 0 300C0 250 0 200 0 150C0 100 0 50 0 25L0 0Z" fill="#040e9d"></path><path d="M252 0L245.3 25C238.7 50 225.3 100 216.5 150C207.7 200 203.3 250 205 300C206.7 350 214.3 400 219 450C223.7 500 225.3 550 226.2 575L227 600L0 600L0 575C0 550 0 500 0 450C0 400 0 350 0 300C0 250 0 200 0 150C0 100 0 50 0 25L0 0Z" fill="#020885"></path><path d="M134 0L129.5 25C125 50 116 100 109.2 150C102.3 200 97.7 250 94.8 300C92 350 91 400 94.7 450C98.3 500 106.7 550 110.8 575L115 600L0 600L0 575C0 550 0 500 0 450C0 400 0 350 0 300C0 250 0 200 0 150C0 100 0 50 0 25L0 0Z" fill="#00036d"></path></svg>